<svg height="22" width="22" xmlns="http://www.w3.org/2000/svg"><path d="m10.269531 17a2 2 0 0 0 -.2695312 1 2 2 0 0 0 2 2 2 2 0 0 0 2-2 2 2 0 0 0 -.271484-1zm1.7304688-13a1 1 0 0 0 -1 1 1 1 0 0 0 .0098.1289062 3.9999999 3.9999999 0 0 0 -3.0098 3.8710938c0 3-1 4-3 6v1h14v-1c-2-2-3-3-3-6a3.9999999 3.9999999 0 0 0 -3.009766-3.8710938 1 1 0 0 0 .009766-.1289062 1 1 0 0 0 -1-1zm0 2a3 3 0 0 1 3 3c0 3 .585938 4 2.585938 6h-11.171876c2-2 2.5859375-3 2.5859375-6a3 3 0 0 1 3-3z" fill="#eff0f1" fill-rule="evenodd"/></svg>